<?xml version="1.0" standalone="no"?>
<!DOCTYPE svg PUBLIC "-//W3C//DTD SVG 20010904//EN"
 "http://www.w3.org/TR/2001/REC-SVG-20010904/DTD/svg10.dtd">
<svg version="1.0" xmlns="http://www.w3.org/2000/svg"
 width="73.000000pt" height="45.000000pt" viewBox="0 0 73.000000 45.000000"
 preserveAspectRatio="xMidYMid meet">
<metadata>
Created by potrace 1.14, written by Peter Selinger 2001-2017
</metadata>
<g transform="translate(0.000000,45.000000) scale(0.100000,-0.100000)"
fill="#000000" stroke="none">
<path d="M115 431 c-48 -22 -79 -54 -100 -103 -18 -45 -19 -77 -3 -130 9 -29
9 -41 0 -50 -13 -13 -17 -138 -5 -138 4 0 26 19 49 41 40 39 44 41 75 30 17
-6 46 -11 63 -11 31 0 109 31 119 46 2 5 -4 32 -15 60 l-20 51 -28 -29 c-39
-38 -82 -38 -121 1 -39 40 -39 82 0 122 46 45 119 33 141 -25 8 -21 8 -21 15
-1 12 38 38 85 47 85 4 0 18 -20 29 -43 l21 -44 24 24 c30 30 95 32 124 3 45
-45 33 -117 -26 -145 -30 -14 -37 -14 -70 0 -19 8 -38 24 -41 35 -7 25 -23 26
-23 3 0 -10 -10 -34 -21 -53 l-21 -34 28 -23 c48 -38 146 -48 193 -18 7 4 20
0 31 -10 13 -12 34 -16 79 -14 34 1 61 5 61 8 0 3 -18 24 -41 47 -40 41 -40
41 -29 85 24 88 -15 181 -92 220 -56 28 -149 24 -196 -10 -30 -21 -35 -22 -50
-7 -27 23 -87 46 -124 46 -18 0 -51 -9 -73 -19z"/>
</g>
</svg>
